<svg xmlns="http://www.w3.org/2000/svg" version="1.1" xmlns:xlink="http://www.w3.org/1999/xlink" xmlns:svgjs="http://svgjs.dev/svgjs" width="1000" height="1012" viewBox="0 0 1000 1012"><g transform="matrix(1,0,0,1,0.883934426229473,0.40971659919023296)"><svg viewBox="0 0 244 247" data-background-color="#ffffff" preserveAspectRatio="xMidYMid meet" height="1012" width="1000" xmlns="http://www.w3.org/2000/svg" xmlns:xlink="http://www.w3.org/1999/xlink"><g id="tight-bounds" transform="matrix(1,0,0,1,-0.21567999999999188,-0.09999999999999432)"><svg viewBox="0 0 244.43135999999998 247.2" height="247.2" width="244.43135999999998"><g><svg></svg></g><g><svg viewBox="0 0 244.43135999999998 247.2" height="247.2" width="244.43135999999998"><g transform="matrix(1,0,0,1,0,48.758359839833176)"><svg viewBox="0 0 244.43135999999998 149.68328032033364" height="149.68328032033364" width="244.43135999999998"><g><svg viewBox="0 0 245.65351679999995 150.43169672193528" height="149.68328032033364" width="244.43135999999998"><g><rect width="245.65351679999995" height="5.104943434550032" x="0" y="75.355297861982" fill="#61777f" opacity="1" stroke-width="0" stroke="transparent" fill-opacity="1" class="rect-o-0" data-fill-palette-color="secondary" rx="1%" id="o-0" data-palette-color="#61777f"></rect></g><g transform="matrix(1,0,0,1,0.6110783999999825,93.82396756498761)"><svg viewBox="0 0 244.43135999999998 56.60772915694768" height="56.60772915694768" width="244.43135999999998"><g id="textblocktransform"><svg viewBox="0 0 244.43135999999998 56.60772915694768" height="56.60772915694768" width="244.43135999999998" id="textblock"><g><svg viewBox="0 0 244.43135999999998 56.60772915694768" height="56.60772915694768" width="244.43135999999998"><g transform="matrix(1,0,0,1,0,0)"><svg width="244.43135999999998" viewBox="2.700000047683716 -34.75 150.04000854492188 34.75" height="56.60772915694768" data-palette-color="#000000"><path d="M11.95 0L2.7 0 2.7-34.75 24.05-34.75 23.1-28.2 11.95-28.2 11.95-19.85 21.75-19.85 21.75-13.3 11.95-13.3 11.95 0ZM27-34.75L36.25-34.75 36.25 0 27 0 27-34.75ZM39.3-34.75L66.4-34.75 65.44-27.7 57.25-27.7 57.25 0 48 0 48-27.7 39.3-27.7 39.3-34.75ZM96.44-34.75L96.44 0 84.79 0 75.99-26.15 76.14-25.1Q76.64-21.65 76.92-18.63 77.19-15.6 77.19-11.75L77.19-11.75 77.19 0 68.99 0 68.99-34.75 80.39-34.75 89.49-8.5Q88.89-12.25 88.57-15.25 88.24-18.25 88.24-22.15L88.24-22.15 88.24-34.75 96.44-34.75ZM101.84-34.75L123.89-34.75 122.94-28.2 111.09-28.2 111.09-20.8 121.44-20.8 121.44-14.45 111.09-14.45 111.09-6.55 123.74-6.55 123.74 0 101.84 0 101.84-34.75ZM125.64-34.75L152.74-34.75 151.79-27.7 143.59-27.7 143.59 0 134.34 0 134.34-27.7 125.64-27.7 125.64-34.75Z" opacity="1" transform="matrix(1,0,0,1,0,0)" fill="#000000" class="wordmark-text-0" data-fill-palette-color="primary" id="text-0"></path></svg></g></svg></g></svg></g></svg></g><g transform="matrix(1,0,0,1,47.29746815999998,0)"><svg viewBox="0 0 151.05858048 61.991571593526416" height="61.991571593526416" width="151.05858048"><g><svg xmlns="http://www.w3.org/2000/svg" xmlns:xlink="http://www.w3.org/1999/xlink" version="1.1" x="8" y="0" viewBox="6.100000381469727 29.900001525878906 87.80000305175781 40.29999542236328" enable-background="new 0 0 100 100" xml:space="preserve" height="61.991571593526416" width="135.05858048" class="icon-icon-0" data-fill-palette-color="accent" id="icon-0"><g fill="#111111" data-fill-palette-color="accent"><g fill="#111111" data-fill-palette-color="accent"><g fill="#111111" data-fill-palette-color="accent"><path d="M76.6 30h-2c-2.5 0-4.5 2-4.5 4.5v31.2c0 2.5 2 4.5 4.5 4.5h2c2.5 0 4.5-2 4.5-4.5V34.4C81 31.9 79 30 76.6 30z" fill="#111111" data-fill-palette-color="accent"></path><path d="M89.4 36.7h-2c-2.5 0-4.5 2-4.5 4.5v17.7c0 2.5 2 4.5 4.5 4.5h2c2.5 0 4.5-2 4.5-4.5V41.1C93.9 38.7 91.9 36.7 89.4 36.7z" fill="#111111" data-fill-palette-color="accent"></path></g><g fill="#111111" data-fill-palette-color="accent"><path d="M23.4 70h2c2.5 0 4.5-2 4.5-4.5V34.4c0-2.5-2-4.5-4.5-4.5h-2c-2.5 0-4.5 2-4.5 4.5v31.2C19 68.1 21 70 23.4 70z" fill="#111111" data-fill-palette-color="accent"></path><path d="M10.6 63.3h2c2.5 0 4.5-2 4.5-4.5V41.1c0-2.5-2-4.5-4.5-4.5h-2c-2.5 0-4.5 2-4.5 4.5v17.7C6.1 61.3 8.1 63.3 10.6 63.3z" fill="#111111" data-fill-palette-color="accent"></path></g></g><path d="M63.5 44.8h-27c-2.2 0-4 1.8-4 4v2.4c0 2.2 1.8 4 4 4h27c2.2 0 4-1.8 4-4v-2.4C67.5 46.6 65.7 44.8 63.5 44.8z" fill="#111111" data-fill-palette-color="accent"></path></g></svg></g></svg></g><g><rect width="0" height="5.104943434550032" y="55.886628158976386" x="198.35604863999998" fill="#61777f" data-fill-palette-color="secondary"></rect><rect width="0" height="5.104943434550032" y="55.886628158976386" x="47.29746815999998" fill="#61777f" data-fill-palette-color="secondary"></rect></g></svg></g></svg></g><path d="M0 42.758L0 1 244.431 1 244.431 42.758 239.352 42.758 239.352 6.08 5.08 6.08 5.08 42.758 0 42.758M0 204.442L0 246.2 244.431 246.2 244.431 204.442 239.352 204.442 239.352 241.12 5.08 241.12 5.08 204.442 0 204.442" fill="#000000" stroke="transparent" data-fill-palette-color="primary"></path></svg></g><defs></defs></svg><rect width="244.43135999999998" height="247.2" fill="none" stroke="none" visibility="hidden"></rect></g></svg></g></svg>